<svg width="36" height="36" viewBox="0 0 36 36" fill="none" xmlns="http://www.w3.org/2000/svg">
<g clip-path="url(#clip0_0_3)">
<path d="M27.05 6.32003C26.6382 6.32003 26.2356 6.44223 25.8934 6.67123C25.5511 6.90022 25.2845 7.22575 25.1274 7.60641C24.9702 7.98706 24.9297 8.40578 25.0107 8.80953C25.0918 9.21328 25.2909 9.58386 25.5828 9.87435C25.8747 10.1648 26.2462 10.3621 26.6504 10.4412C27.0545 10.5204 27.4731 10.4778 27.853 10.3188C28.2328 10.1598 28.557 9.89167 28.7844 9.5483C29.0117 9.20493 29.132 8.80178 29.13 8.38998C29.13 8.1173 29.0761 7.84734 28.9715 7.59554C28.8668 7.34374 28.7135 7.11516 28.5202 6.92281C28.3269 6.73046 28.0975 6.57813 27.8452 6.47469C27.5929 6.37126 27.3227 6.31871 27.05 6.32003Z" fill="url(#paint0_linear_0_3)"/>
<path d="M17.83 8.98004C16.1078 8.98202 14.4247 9.49455 12.9937 10.4528C11.5627 11.4111 10.4479 12.772 9.79015 14.3637C9.13244 15.9554 8.96137 17.7064 9.29857 19.3953C9.63578 21.0842 10.4661 22.6354 11.6846 23.8525C12.9031 25.0696 14.4552 25.8981 16.1445 26.2333C17.8338 26.5686 19.5845 26.3956 21.1755 25.736C22.7664 25.0765 24.1262 23.9601 25.0828 22.528C26.0394 21.0959 26.55 19.4122 26.55 17.69C26.5473 15.379 25.6275 13.1636 23.9924 11.5305C22.3574 9.8973 20.141 8.98004 17.83 8.98004ZM17.83 23.27C16.7264 23.27 15.6475 22.9428 14.7299 22.3296C13.8123 21.7165 13.0971 20.845 12.6747 19.8254C12.2524 18.8058 12.1419 17.6838 12.3572 16.6014C12.5725 15.519 13.104 14.5247 13.8843 13.7443C14.6647 12.9639 15.659 12.4325 16.7414 12.2172C17.8238 12.0019 18.9458 12.1124 19.9654 12.5347C20.985 12.9571 21.8565 13.6723 22.4696 14.5899C23.0827 15.5075 23.41 16.5864 23.41 17.69C23.4074 19.1691 22.8186 20.5869 21.7728 21.6327C20.7269 22.6786 19.3091 23.2673 17.83 23.27Z" fill="url(#paint1_linear_0_3)"/>
<path d="M24.75 35.3799H10.62C7.80328 35.3746 5.10362 34.2527 3.11284 32.2601C1.12207 30.2674 0.00263087 27.5668 -1.14441e-05 24.7501V10.6299C0.00263087 7.81323 1.12207 5.11258 3.11284 3.11993C5.10362 1.12728 7.80328 0.00535246 10.62 5.91278e-05H24.75C27.5684 0.00270679 30.2707 1.12345 32.2636 3.11639C34.2565 5.10933 35.3773 7.8115 35.38 10.6299V24.7501C35.3773 27.5685 34.2565 30.2707 32.2636 32.2636C30.2707 34.2565 27.5684 35.3773 24.75 35.3799ZM10.62 3.37994C8.68564 3.38259 6.83144 4.15294 5.46459 5.52167C4.09773 6.89039 3.33 8.74564 3.33001 10.68V24.8C3.33 26.7343 4.09773 28.5896 5.46459 29.9583C6.83144 31.327 8.68564 32.0974 10.62 32.1H24.75C26.6861 32.1 28.5428 31.3309 29.9119 29.9619C31.2809 28.5928 32.05 26.7361 32.05 24.8V10.68C32.05 8.74391 31.2809 6.88714 29.9119 5.51813C28.5428 4.14911 26.6861 3.37994 24.75 3.37994H10.62Z" fill="url(#paint2_linear_0_3)"/>
</g>
<defs>
<linearGradient id="paint0_linear_0_3" x1="10.85" y1="-7.1199" x2="42.9298" y2="23.5901" gradientUnits="userSpaceOnUse">
<stop stop-color="#FFE088"/>
<stop offset="0.21" stop-color="#FAB744"/>
<stop offset="0.38" stop-color="#EA5578"/>
<stop offset="0.52" stop-color="#E93E8F"/>
<stop offset="0.74" stop-color="#7C4997"/>
<stop offset="1" stop-color="#4F53A0"/>
</linearGradient>
<linearGradient id="paint1_linear_0_3" x1="1.79" y1="2.34006" x2="33.8799" y2="33.05" gradientUnits="userSpaceOnUse">
<stop stop-color="#FFE088"/>
<stop offset="0.21" stop-color="#FAB744"/>
<stop offset="0.38" stop-color="#EA5578"/>
<stop offset="0.52" stop-color="#E93E8F"/>
<stop offset="0.74" stop-color="#7C4997"/>
<stop offset="1" stop-color="#4F53A0"/>
</linearGradient>
<linearGradient id="paint2_linear_0_3" x1="1.71999" y1="2.41005" x2="33.8099" y2="33.1201" gradientUnits="userSpaceOnUse">
<stop stop-color="#FFE088"/>
<stop offset="0.21" stop-color="#FAB744"/>
<stop offset="0.38" stop-color="#EA5578"/>
<stop offset="0.52" stop-color="#E93E8F"/>
<stop offset="0.74" stop-color="#7C4997"/>
<stop offset="1" stop-color="#4F53A0"/>
</linearGradient>
<clipPath id="clip0_0_3">
<rect width="35.38" height="35.38" fill="white"/>
</clipPath>
</defs>
</svg>
