<svg width="43" height="37" viewBox="0 0 43 37" fill="none" xmlns="http://www.w3.org/2000/svg">
<path d="M42.81 4.97999C41.4184 5.57591 39.9567 5.99257 38.46 6.21998C39.16 6.09998 40.19 4.83996 40.6 4.31996C41.2443 3.54382 41.7332 2.6509 42.04 1.68995C42.04 1.61995 42.11 1.51998 42.04 1.46998C42.0048 1.45073 41.9652 1.44056 41.925 1.44056C41.8848 1.44056 41.8453 1.45073 41.81 1.46998C40.1842 2.35041 38.4539 3.02237 36.66 3.46998C36.5976 3.49023 36.5308 3.49249 36.4671 3.47657C36.4035 3.46066 36.3456 3.42713 36.3 3.3799C36.1604 3.21362 36.0101 3.05665 35.85 2.90992C35.1014 2.27288 34.2579 1.75663 33.35 1.3799C32.136 0.889294 30.8264 0.680733 29.52 0.76991C28.2541 0.849997 27.0183 1.19043 25.89 1.76991C24.7594 2.36094 23.7621 3.17783 22.96 4.16993C22.124 5.19214 21.5261 6.38777 21.21 7.66993C20.9354 8.88515 20.9048 10.1428 21.12 11.3699C21.12 11.5799 21.12 11.61 20.94 11.58C13.86 10.53 7.94002 7.98997 3.23002 2.57997C3.02002 2.33997 2.91003 2.33997 2.74003 2.57997C0.650034 5.70997 1.67 10.73 4.27 13.2C4.61579 13.5519 4.97964 13.8857 5.36003 14.2C4.16546 14.0942 3.0034 13.7544 1.94005 13.2C1.73005 13.06 1.63003 13.1399 1.61003 13.3699C1.59729 13.7044 1.61739 14.0393 1.67003 14.3699C1.87768 15.9648 2.50574 17.4759 3.48979 18.7482C4.47384 20.0204 5.77846 21.0081 7.27 21.61C7.63294 21.7671 8.01182 21.8844 8.40001 21.96C7.29639 22.1769 6.16462 22.2106 5.05003 22.0599C4.80003 22.01 4.71003 22.1399 4.80003 22.3699C6.28003 26.3699 9.46003 27.5899 11.8 28.2699C12.12 28.3199 12.44 28.3199 12.8 28.3999C12.8 28.3999 12.8 28.3999 12.74 28.3999C11.95 29.6099 9.21004 30.51 7.93004 30.95C5.59036 31.7897 3.09604 32.1104 0.620039 31.8899C0.230039 31.8299 0.150022 31.8899 0.0400219 31.8899C-0.0699781 31.8899 0.040017 32.0499 0.160017 32.1499C0.650017 32.4799 1.16004 32.7699 1.68004 33.0499C3.22808 33.8943 4.86468 34.565 6.56004 35.0499C15.34 37.4699 25.22 35.6899 31.81 29.1399C36.98 23.9999 38.81 16.9099 38.81 9.80995C38.81 9.53995 39.13 9.38 39.33 9.24C40.6416 8.21693 41.8 7.01129 42.77 5.65992C42.9184 5.46479 42.996 5.22506 42.99 4.97999C42.98 4.86999 42.98 4.92999 42.81 4.97999Z" fill="#00B1E3"/>
</svg>
